<svg viewBox="0 0 100 37" xmlns="http://www.w3.org/2000/svg"><linearGradient id="a" gradientUnits="userSpaceOnUse" x1="21.183" x2="65.87" y1="2.46" y2="47.147"><stop offset=".5" stop-color="#ff3294"/><stop offset="1" stop-color="#ff8f5a"/></linearGradient><g fill="url(#a)"><path d="M6.2 24.8l10.3 3.6v5.1L1 26.9v-4.3L16.6 16v5.1zM20 26.1c0-3 .7-5.5 2.1-7.3s3.2-2.7 5.6-2.7c1.9 0 3.5.7 4.7 2.1v-10h5.2V36h-4.7l-.3-2.1c-1.3 1.6-3 2.4-5 2.4-2.3 0-4.1-.9-5.5-2.7S20 29.3 20 26.1zm5.2.4c0 1.8.3 3.2 1 4.2.6 1 1.6 1.5 2.8 1.5 1.6 0 2.8-.7 3.4-2v-7.7c-.7-1.4-1.8-2-3.4-2-2.5-.2-3.8 1.9-3.8 6zm16.4-15.1c0-.8.3-1.4.8-1.9.6-.5 1.3-.8 2.2-.8s1.6.3 2.1.8.8 1.1.8 1.9-.3 1.4-.8 2c-.5.5-1.2.8-2.1.8s-1.6-.3-2.1-.8c-.6-.6-.9-1.2-.9-2zM47.2 36H42V16.5h5.2zm11.6-6.4l3.6-13.2h5.5L61.3 36h-5l-6.6-19.5h5.5zm22-4.8l-10.5-3.7v-5L86 22.7v4.2l-15.7 6.6v-5z"/></g></svg>