<svg enable-background="new 0 0 100 30" viewBox="0 0 100 30" xmlns="http://www.w3.org/2000/svg" xmlns:xlink="http://www.w3.org/1999/xlink"><linearGradient id="a" gradientUnits="userSpaceOnUse" x1="17.1753" x2="53.4082" y1="1.8054" y2="38.0383"><stop offset=".5" stop-color="#ff3294"/><stop offset="1" stop-color="#ff8f5a"/></linearGradient><path d="m5.1 19.9 8.3 2.9v4.2l-12.6-5.4v-3.5l12.6-5.3v4.1z"/><path d="m16.2 21c0-2.5.6-4.4 1.7-5.9s2.6-2.2 4.5-2.2c1.5 0 2.8.6 3.8 1.7v-8.1h4.2v22.5h-3.8l-.2-1.7c-1.1 1.3-2.4 2-4.1 2-1.9 0-3.4-.7-4.5-2.2-1-1.5-1.6-3.5-1.6-6.1zm4.3.3c0 1.5.3 2.6.8 3.4s1.3 1.2 2.3 1.2c1.3 0 2.2-.6 2.8-1.7v-6.2c-.5-1.1-1.4-1.7-2.7-1.7-2.2 0-3.2 1.7-3.2 5z"/><path d="m33.8 9c0-.6.2-1.2.6-1.6s1-.6 1.7-.6 1.3.2 1.7.6.6.9.6 1.6c0 .6-.2 1.2-.7 1.6s-1 .6-1.7.6-1.3-.2-1.7-.6-.5-.9-.5-1.6zm4.5 20h-4.3v-15.8h4.2v15.8z"/><path d="m47.7 23.8 2.9-10.7h4.4l-5.3 15.9h-4l-5.3-15.8h4.4z"/><path d="m65.6 19.9-8.5-3v-4.1l12.8 5.3v3.4l-12.9 5.5v-4.1z"/><g fill="url(#a)"><path d="m5.1 19.9 8.3 2.9v4.2l-12.6-5.4v-3.5l12.6-5.3v4.1z"/><path d="m16.2 21c0-2.5.6-4.4 1.7-5.9s2.6-2.2 4.5-2.2c1.5 0 2.8.6 3.8 1.7v-8.1h4.2v22.5h-3.8l-.2-1.7c-1.1 1.3-2.4 2-4.1 2-1.9 0-3.4-.7-4.5-2.2-1-1.5-1.6-3.5-1.6-6.1zm4.3.3c0 1.5.3 2.6.8 3.4s1.3 1.2 2.3 1.2c1.3 0 2.2-.6 2.8-1.7v-6.2c-.5-1.1-1.4-1.7-2.7-1.7-2.2 0-3.2 1.7-3.2 5z"/><path d="m33.8 9c0-.6.2-1.2.6-1.6s1-.6 1.7-.6 1.3.2 1.7.6.6.9.6 1.6c0 .6-.2 1.2-.7 1.6s-1 .6-1.7.6-1.3-.2-1.7-.6-.5-.9-.5-1.6zm4.5 20h-4.3v-15.8h4.2v15.8z"/><path d="m47.7 23.8 2.9-10.7h4.4l-5.3 15.9h-4l-5.3-15.8h4.4z"/><path d="m65.6 19.9-8.5-3v-4.1l12.8 5.3v3.4l-12.9 5.5v-4.1z"/></g></svg>