<svg enable-background="new 0 0 100 40" viewBox="0 0 100 40" xmlns="http://www.w3.org/2000/svg" xmlns:xlink="http://www.w3.org/1999/xlink"><linearGradient id="a" gradientUnits="userSpaceOnUse" x1="14.0186" x2="44.5654" y1="12.6223" y2="43.1691"><stop offset=".5" stop-color="#ff3294"/><stop offset="1" stop-color="#ff8f5a"/></linearGradient><path d="m6.7 27.9 11.1 3.9v5.5l-16.7-7.1v-4.6l16.8-7.1v5.5z"/><path d="m23.7 37.9-2.8-1.5 13.9-22.2 2.8 1.5z"/><path d="m51.9 27.9-11.3-4v-5.4l17 7.1v4.6l-17 7.1v-5.4z"/><g fill="url(#a)"><path d="m6.7 27.9 11.1 3.9v5.5l-16.7-7.1v-4.6l16.8-7.1v5.5z"/><path d="m23.7 37.9-2.8-1.5 13.9-22.2 2.8 1.5z"/><path d="m51.9 27.9-11.3-4v-5.4l17 7.1v4.6l-17 7.1v-5.4z"/></g></svg>