<svg enable-background="new 0 0 100 60" viewBox="0 0 100 60" xmlns="http://www.w3.org/2000/svg" xmlns:xlink="http://www.w3.org/1999/xlink"><linearGradient id="a" gradientUnits="userSpaceOnUse" x1="5.1495" x2="39.4033" y1="17.0594" y2="51.3132"><stop offset=".5" stop-color="#ff3294"/><stop offset="1" stop-color="#ff8f5a"/></linearGradient><path d="m14 57.6c-5.7-1.6-8.6-5.3-8.6-11.1v-4.8c0-3.4-1.4-5-4.3-5v-5c2.8 0 4.2-1.6 4.3-4.8v-5.1c0-3 .7-5.3 2.2-7.2s3.6-3.1 6.5-3.9l1.3 3.9c-1.2.4-2.1 1.2-2.8 2.3s-.9 2.6-1 4.6v5c0 3.6-1.4 6.1-4.3 7.6 2.9 1.5 4.3 4 4.3 7.6v5.1c.1 3.7 1.3 6 3.7 6.8z"/><path d="m29.2 53.7c2.4-.9 3.7-3.2 3.7-6.9v-5.1c0-3.6 1.5-6.1 4.4-7.5-2.9-1.4-4.4-3.9-4.4-7.6v-5c-.1-3.7-1.3-6-3.7-6.9l1.3-3.9c2.9.8 5 2.1 6.4 3.9s2.2 4.2 2.2 7.1v5.2c.1 3.2 1.5 4.8 4.3 4.8v5c-2.8 0-4.3 1.7-4.3 5v5.2c-.1 5.6-3 9.2-8.6 10.7z"/><g fill="url(#a)"><path d="m14 57.6c-5.7-1.6-8.6-5.3-8.6-11.1v-4.8c0-3.4-1.4-5-4.3-5v-5c2.8 0 4.2-1.6 4.3-4.8v-5.1c0-3 .7-5.3 2.2-7.2s3.6-3.1 6.5-3.9l1.3 3.9c-1.2.4-2.1 1.2-2.8 2.3s-.9 2.6-1 4.6v5c0 3.6-1.4 6.1-4.3 7.6 2.9 1.5 4.3 4 4.3 7.6v5.1c.1 3.7 1.3 6 3.7 6.8z"/><path d="m29.2 53.7c2.4-.9 3.7-3.2 3.7-6.9v-5.1c0-3.6 1.5-6.1 4.4-7.5-2.9-1.4-4.4-3.9-4.4-7.6v-5c-.1-3.7-1.3-6-3.7-6.9l1.3-3.9c2.9.8 5 2.1 6.4 3.9s2.2 4.2 2.2 7.1v5.2c.1 3.2 1.5 4.8 4.3 4.8v5c-2.8 0-4.3 1.7-4.3 5v5.2c-.1 5.6-3 9.2-8.6 10.7z"/></g></svg>