<?xml version="1.0" encoding="utf-8"?>
<!-- Svg Vector Icons : http://www.onlinewebfonts.com/icon -->
<!DOCTYPE svg PUBLIC "-//W3C//DTD SVG 1.1//EN" "http://www.w3.org/Graphics/SVG/1.1/DTD/svg11.dtd">
<svg version="1.1" xmlns="http://www.w3.org/2000/svg" xmlns:xlink="http://www.w3.org/1999/xlink" x="0px" y="0px" viewBox="0 0 1000 1000" enable-background="new 0 0 1000 1000" xml:space="preserve">
<metadata> Svg Vector Icons : http://www.onlinewebfonts.com/icon </metadata>
<g><g transform="translate(0.000000,511.000000) scale(0.100000,-0.100000)"><path d="M1566.1,4990c-170.8-27.3-498.9-157.2-666.3-266.5c-317.8-205-546.7-495.4-703.9-888.4l-82-205L103.7,223.5C93.4-3518,90-3415.5,298.5-3828.9c198.2-389.5,529.6-680,987.5-857.6l228.9-88.8l3355.4-10.3c3707.3-10.3,3638.9-13.7,4072.9,205c287,147,601.3,461.3,748.3,748.3c218.7,433.9,215.3,365.6,205,4072.9l-10.2,3355.4l-88.8,228.9c-177.7,457.9-468.1,789.3-857.6,987.5c-406.6,205-310.9,201.6-3956.7,194.8C3151.5,5007.1,1613.9,4996.8,1566.1,4990z M8707.3,3066.3v-785.9h-785.9h-785.9v762c0,420.3,10.2,775.6,23.9,785.9c10.2,13.7,365.6,23.9,785.9,23.9h761.9V3066.3z M5355.4,1627.8c225.5-51.3,505.7-201.6,690.2-362.2c803-724.4,635.5-2074-317.8-2559.2c-967-492-2101.4,78.6-2282.5,1144.6c-129.8,762,382.7,1558.1,1127.6,1759.7C4795,1668.8,5143.6,1679.1,5355.4,1627.8z M2341.7,855.6c-95.7-314.3-102.5-1083.1-10.3-1411.1c205-765.4,744.9-1428.3,1438.5-1773.4c437.4-218.7,748.3-290.4,1230.1-287c765.4,3.4,1400.9,266.5,1930.5,796.2c341.7,341.7,597.9,785.9,724.4,1257.4c123,461.3,95.7,1185.7-61.5,1595.7c-17.1,44.4,61.5,51.3,649.2,51.3h669.7V-647.8c0-956.7-17.1-1841.7-34.2-1968.1c-68.3-478.4-345.1-854.2-779-1059.2l-228.9-109.3l-2767.7-10.3c-2019.4-6.8-2818.9,0-2955.6,27.4c-406.6,88.8-751.7,362.2-932.8,744.8l-109.3,229l-10.2,1940.7l-10.3,1937.4h662.9h662.9L2341.7,855.6z"  fill="#B2B9CA"/></g></g>
</svg>