<svg viewBox="0 0 505.709 505.709" xmlns="http://www.w3.org/2000/svg" fill="url(#prefix__a)"><linearGradient id="prefix__a" x1="0%" x2="0%" y1="0%" y2="100%"><stop offset="0%" stop-color="#ff3294"/><stop offset="100%" stop-color="#ff8f5a"/></linearGradient><path d="M427.554 71.862c-99.206-95.816-256.486-95.816-355.692 0-98.222 101.697-95.405 263.762 6.292 361.984 99.206 95.816 256.486 95.816 355.692 0 98.222-101.696 95.405-263.762-6.292-361.984zm-5.74 349.952l-.085-.085c-93.352 93.267-244.636 93.198-337.903-.154S-9.372 176.94 83.98 83.673s244.636-93.198 337.903.153a238.932 238.932 0 0169.905 169.028 238.934 238.934 0 01-69.974 168.96z"/><path d="M396.641 325.729l-47.957-47.787c-10.884-10.91-28.552-10.931-39.462-.047l-.047.047-27.477 27.477a6.058 6.058 0 01-7.765.683 310.599 310.599 0 01-42.069-35.328 312.33 312.33 0 01-31.915-37.291 5.973 5.973 0 01.597-7.765l28.16-28.16c10.872-10.893 10.872-28.531 0-39.424l-47.957-47.957c-11.051-10.565-28.458-10.565-39.509 0l-15.189 15.189c-22.939 22.681-31.128 56.359-21.163 87.04a255.982 255.982 0 0031.232 63.317 323.712 323.712 0 0040.96 49.835 321.547 321.547 0 0054.869 44.288 244.287 244.287 0 0070.997 31.573 82.193 82.193 0 0019.797 2.389 86.357 86.357 0 0060.843-25.6l13.056-13.056c10.871-10.892 10.871-28.53-.001-39.423 27z"/></svg>