<?xml version="1.0" encoding="utf-8"?>
<svg xmlns="http://www.w3.org/2000/svg" xmlns:xlink="http://www.w3.org/1999/xlink" style="margin: auto; background: rgba(0, 0, 0, 0) none repeat scroll 0% 0%; display: block; shape-rendering: auto;" width="267px" height="267px" viewBox="0 0 100 100" preserveAspectRatio="xMidYMid">
<g transform="rotate(0 50 50)">
  <rect x="48.5" y="31" rx="1.5" ry="1.5" width="3" height="10" fill="#ff2d5e">
    <animate attributeName="opacity" values="1;0" keyTimes="0;1" dur="1.1904761904761905s" begin="-1.0912698412698412s" repeatCount="indefinite"></animate>
  </rect>
</g><g transform="rotate(30 50 50)">
  <rect x="48.5" y="31" rx="1.5" ry="1.5" width="3" height="10" fill="#ff2d5e">
    <animate attributeName="opacity" values="1;0" keyTimes="0;1" dur="1.1904761904761905s" begin="-0.9920634920634919s" repeatCount="indefinite"></animate>
  </rect>
</g><g transform="rotate(60 50 50)">
  <rect x="48.5" y="31" rx="1.5" ry="1.5" width="3" height="10" fill="#ff2d5e">
    <animate attributeName="opacity" values="1;0" keyTimes="0;1" dur="1.1904761904761905s" begin="-0.8928571428571427s" repeatCount="indefinite"></animate>
  </rect>
</g><g transform="rotate(90 50 50)">
  <rect x="48.5" y="31" rx="1.5" ry="1.5" width="3" height="10" fill="#ff2d5e">
    <animate attributeName="opacity" values="1;0" keyTimes="0;1" dur="1.1904761904761905s" begin="-0.7936507936507935s" repeatCount="indefinite"></animate>
  </rect>
</g><g transform="rotate(120 50 50)">
  <rect x="48.5" y="31" rx="1.5" ry="1.5" width="3" height="10" fill="#ff2d5e">
    <animate attributeName="opacity" values="1;0" keyTimes="0;1" dur="1.1904761904761905s" begin="-0.6944444444444443s" repeatCount="indefinite"></animate>
  </rect>
</g><g transform="rotate(150 50 50)">
  <rect x="48.5" y="31" rx="1.5" ry="1.5" width="3" height="10" fill="#ff2d5e">
    <animate attributeName="opacity" values="1;0" keyTimes="0;1" dur="1.1904761904761905s" begin="-0.5952380952380951s" repeatCount="indefinite"></animate>
  </rect>
</g><g transform="rotate(180 50 50)">
  <rect x="48.5" y="31" rx="1.5" ry="1.5" width="3" height="10" fill="#ff2d5e">
    <animate attributeName="opacity" values="1;0" keyTimes="0;1" dur="1.1904761904761905s" begin="-0.49603174603174593s" repeatCount="indefinite"></animate>
  </rect>
</g><g transform="rotate(210 50 50)">
  <rect x="48.5" y="31" rx="1.5" ry="1.5" width="3" height="10" fill="#ff2d5e">
    <animate attributeName="opacity" values="1;0" keyTimes="0;1" dur="1.1904761904761905s" begin="-0.39682539682539675s" repeatCount="indefinite"></animate>
  </rect>
</g><g transform="rotate(240 50 50)">
  <rect x="48.5" y="31" rx="1.5" ry="1.5" width="3" height="10" fill="#ff2d5e">
    <animate attributeName="opacity" values="1;0" keyTimes="0;1" dur="1.1904761904761905s" begin="-0.29761904761904756s" repeatCount="indefinite"></animate>
  </rect>
</g><g transform="rotate(270 50 50)">
  <rect x="48.5" y="31" rx="1.5" ry="1.5" width="3" height="10" fill="#ff2d5e">
    <animate attributeName="opacity" values="1;0" keyTimes="0;1" dur="1.1904761904761905s" begin="-0.19841269841269837s" repeatCount="indefinite"></animate>
  </rect>
</g><g transform="rotate(300 50 50)">
  <rect x="48.5" y="31" rx="1.5" ry="1.5" width="3" height="10" fill="#ff2d5e">
    <animate attributeName="opacity" values="1;0" keyTimes="0;1" dur="1.1904761904761905s" begin="-0.09920634920634919s" repeatCount="indefinite"></animate>
  </rect>
</g><g transform="rotate(330 50 50)">
  <rect x="48.5" y="31" rx="1.5" ry="1.5" width="3" height="10" fill="#ff2d5e">
    <animate attributeName="opacity" values="1;0" keyTimes="0;1" dur="1.1904761904761905s" begin="0s" repeatCount="indefinite"></animate>
  </rect>
</g>
<!-- [ldio] generated by https://loading.io/ --></svg>