<?xml version="1.0" standalone="no"?>
<!DOCTYPE svg PUBLIC "-//W3C//DTD SVG 20010904//EN"
 "http://www.w3.org/TR/2001/REC-SVG-20010904/DTD/svg10.dtd">
<svg version="1.0" xmlns="http://www.w3.org/2000/svg"
 width="512.000000pt" height="512.000000pt" viewBox="0 0 512.000000 512.000000"
 preserveAspectRatio="xMidYMid meet">
<metadata>
Created by potrace 1.11, written by Peter Selinger 2001-2013
</metadata>
<g transform="translate(0.000000,512.000000) scale(0.100000,-0.100000)"
fill="#000000" stroke="none">
<path d="M265 5031 c-69 -17 -125 -63 -161 -131 -18 -34 -19 -93 -19 -1620 l0
-1585 22 -40 c25 -47 64 -85 113 -111 33 -18 73 -19 667 -22 l633 -3 0 -136
c0 -77 5 -153 12 -177 16 -55 99 -138 154 -154 60 -17 3128 -17 3188 0 55 16
138 99 154 154 8 27 12 117 12 258 l0 216 -486 0 -487 0 7 37 c3 21 6 57 6 81
l0 42 480 0 480 0 0 776 c0 581 -3 787 -12 818 -16 55 -99 138 -154 154 -29 8
-151 12 -417 12 l-376 0 -3 633 c-3 594 -4 634 -22 667 -26 49 -64 88 -111
113 l-40 22 -1805 2 c-993 0 -1818 -2 -1835 -6z m3630 -176 c24 -23 25 -29 25
-160 l0 -135 -1840 0 -1840 0 0 135 c0 131 1 137 25 160 l24 25 1791 0 1791 0
24 -25z m25 -855 l0 -400 -448 0 -448 0 -90 113 c-82 103 -92 112 -126 115
-47 4 -78 -24 -78 -71 0 -24 12 -49 45 -91 25 -32 45 -60 45 -62 0 -2 -105 -4
-234 -4 l-235 0 25 72 c13 39 24 81 24 94 0 31 -30 63 -66 70 -49 9 -77 -24
-114 -138 l-32 -98 -230 0 c-152 0 -245 -4 -272 -12 -55 -16 -138 -99 -154
-154 -9 -31 -12 -237 -12 -818 l0 -776 1200 0 1200 0 0 -55 c0 -46 -4 -60 -25
-80 l-24 -25 -1791 0 -1791 0 -24 25 -25 24 0 1336 0 1335 1840 0 1840 0 0
-400z m-1305 -825 c16 -15 25 -36 25 -55 0 -19 -9 -40 -25 -55 -24 -25 -24
-25 -235 -25 -115 0 -210 4 -210 8 0 7 26 89 45 140 3 9 51 12 190 12 184 0
186 0 210 -25z m480 0 c16 -15 25 -36 25 -55 0 -19 -9 -40 -25 -55 -23 -24
-31 -25 -135 -25 -104 0 -112 1 -135 25 -16 15 -25 36 -25 55 0 19 9 40 25 55
23 24 31 25 135 25 104 0 112 -1 135 -25z m720 0 c16 -15 25 -36 25 -55 0 -19
-9 -40 -25 -55 -24 -25 -27 -25 -199 -25 -161 0 -175 1 -181 19 -3 10 -26 44
-50 76 -25 31 -45 59 -45 61 0 2 101 4 225 4 l226 0 24 -25z m720 0 c16 -15
25 -36 25 -55 0 -19 -9 -40 -25 -55 -24 -25 -24 -25 -240 -25 l-215 0 0 80 0
80 215 0 c216 0 216 0 240 -25z m-2160 -480 c16 -15 25 -36 25 -55 0 -19 -9
-40 -25 -55 -23 -24 -28 -25 -173 -25 -180 0 -193 5 -173 71 29 98 12 89 176
89 142 0 147 -1 170 -25z m628 13 c-6 -7 -34 -43 -62 -80 l-53 -68 -139 0
c-135 0 -141 1 -164 25 -16 15 -25 36 -25 55 0 19 9 40 25 55 24 25 25 25 226
25 160 0 199 -3 192 -12z m572 -13 c16 -15 25 -36 25 -55 0 -19 -9 -40 -25
-55 l-24 -25 -231 0 c-128 0 -230 4 -228 8 2 5 28 40 58 80 l55 71 173 1 c170
0 173 0 197 -25z m345 -55 l0 -80 -55 0 c-67 0 -105 29 -105 80 0 51 38 80
105 80 l55 0 0 -80z m615 55 c16 -15 25 -36 25 -55 0 -19 -9 -40 -25 -55 -23
-24 -31 -25 -135 -25 -104 0 -112 1 -135 25 -16 15 -25 36 -25 55 0 19 9 40
25 55 23 24 31 25 135 25 104 0 112 -1 135 -25z m-1680 -480 c16 -15 25 -36
25 -55 0 -19 -9 -40 -25 -55 l-24 -25 -391 0 -391 0 -24 25 c-16 15 -25 36
-25 55 0 19 9 40 25 55 l24 25 391 0 391 0 24 -25z m480 0 c16 -15 25 -36 25
-55 0 -19 -9 -40 -25 -55 -23 -24 -31 -25 -135 -25 -104 0 -112 1 -135 25 -16
15 -25 36 -25 55 0 19 9 40 25 55 23 24 31 25 135 25 104 0 112 -1 135 -25z
m585 -55 l0 -80 -175 0 c-173 0 -176 0 -200 25 -16 15 -25 36 -25 55 0 19 9
40 25 55 24 25 27 25 200 25 l175 0 0 -80z m615 55 c16 -15 25 -36 25 -55 0
-19 -9 -40 -25 -55 -23 -24 -31 -25 -135 -25 -104 0 -112 1 -135 25 -16 15
-25 36 -25 55 0 19 9 40 25 55 23 24 31 25 135 25 104 0 112 -1 135 -25z"/>
<path d="M1320 3827 c-23 -18 -580 -735 -592 -763 -8 -17 -8 -31 0 -48 11 -25
525 -690 570 -738 51 -55 132 -26 132 46 0 29 -37 82 -265 375 l-266 341 259
333 c143 183 264 343 271 354 17 34 13 62 -14 88 -26 27 -70 32 -95 12z"/>
<path d="M2897 873 c-2 -5 -39 -149 -82 -320 l-77 -313 -65 0 c-55 0 -67 -4
-88 -25 -33 -32 -33 -78 0 -110 l24 -25 671 0 671 0 24 25 c33 32 33 78 0 110
-21 21 -33 25 -88 25 l-65 0 -79 318 -79 317 -381 3 c-210 1 -384 -1 -386 -5z"/>
</g>
</svg>
